A group of kids go to a Halloween party, only to have to face down a group of demons.
 
http://www.imdb.com/title/tt1268809/

Subtitles (srt) : Dutch, English.

Covers included.

Angela Feld geeft een Halloweenfeest. Maar na een politie-inval blijven enkel Angela en haar vrienden Maddie, Lily, Suzanne, Colin, Dex en Jason over. Het duurt vervolgens niet lang voor Colin en Angela een bijzonder geheim in de kelder vinden en niet veel later begint een gruwelijke nachtmerrie voor de jonge tieners. Het leuke Halloweenfeestje loopt al snel uit tot een gevecht tegen gruwelijke demonen.
 
http://www.moviemeter.nl/film/54770

Ondertitels (srt) : Engels, Nederlands.

Hoesjes bijgevoegd.

General
Complete name                    : Night of the Demons-AC3-XviD-BRRip[Eng]2009 2Lions-Team\Night of the Demons-AC3-XviD-BRRip[Eng]2009 2Lions-Team.avi
Format                           : AVI
Format/Info                      : Audio Video Interleave
File size                        : 1.36 GiB
Duration                         : 1h 32mn
Overall bit rate                 : 2 099 Kbps
Writing application              : VirtualDubMod 1.5.4.1 (build 2178/release)
Writing library                  : VirtualDubMod build 2178/release
Source                           : Night Of The Demons (2009) 720p BluRay x264-AVCHD

Video
ID                               : 0
Format                           : MPEG-4 Visual
Format profile                   : Simple@L3
Format settings, BVOP            : No
Format settings, QPel            : No
Format settings, GMC             : No warppoints
Format settings, Matrix          : Default (H.263)
Codec ID                         : XVID
Codec ID/Hint                    : XviD
Duration                         : 1h 32mn
Bit rate                         : 1 642 Kbps
Width                            : 720 pixels
Height                           : 400 pixels
Display aspect ratio             : 16:9
Frame rate                       : 23.976 fps
Color space                      : YUV
Chroma subsampling               : 4:2:0
Bit depth                        : 8 bits
Scan type                        : Progressive
Bits/(Pixel*Frame)               : 0.238
Stream size                      : 1.07 GiB (78%)
Writing library                  : XviD 1.1.2 (UTC 2006-11-01)

Audio
ID                               : 1
Format                           : AC-3
Format/Info                      : Audio Coding 3
Mode extension                   : CM (complete main)
Codec ID                         : 2000
Duration                         : 1h 32mn
Bit rate mode                    : Constant
Bit rate                         : 448 Kbps
Channel(s)                       : 6 channels
Channel positions                : Front: L C R, Side: L R, LFE
Sampling rate                    : 48.0 KHz
Bit depth                        : 16 bits
Stream size                      : 298 MiB (21%)
Alignment                        : Split accross interleaves
Interleave, duration             : 42 ms (1.00 video frame)
Interleave, preload duration     : 500 ms

Thanks to Twilight_Team for the source, and barryk16 for the Dutch subs.Awesome!!!
 
Brought to you by Gollum.

DON T HIT AND RUN Niet gelijk afhaken als de FILM binnen is blijf seeden. 

Don`t quit after you finished the download, but keep seeding

There are fake torrents from uploaders who use our team name.
Those are not ours, or members from our team.
We 2Lions-Team are not responsible for the fake posts on our name

Wij 2Lions-Team zijn niet verantwoordelijk voor die zieke FAKE posten die op onze naam worden gedaan

Please check our site !!!

to the fakers , get a life !!!